# xmcd CD database file
#
# Track frame offsets:
#	150
#	23405
#	52197
#	81092
#	110285
#	139882
#
# Disc length: 2194 seconds
#
# Revision: 0
# Processed by: cddbd v1.5.1PL0 Copyright (c) Steve Scherf et al.
# Submitted via: CDex 1.51
#
DISCID=46089006
DTITLE=Toshiko Akiyoshi Trio - Time Stream
DYEAR=1984
DGENRE=Jazz
TTITLE0=Prosperity
TTITLE1=Con Alma
TTITLE2=Giant Step
TTITLE3=Smile
TTITLE4=Time Stream
TTITLE5=Tico Tico
EXTD=YEAR: 1984
EXTT0=
EXTT1=
EXTT2=
EXTT3=
EXTT4=
EXTT5=
PLAYORDER=
